<svg width="33" height="32" viewBox="0 0 33 32" fill="none" xmlns="http://www.w3.org/2000/svg">
<path d="M13.5201 2.7423C11.5723 3.10685 10.0308 4.95562 10.1142 6.82002C10.135 7.17935 10.1558 7.25747 10.2652 7.37725C10.5464 7.6793 10.1871 7.66368 16.4104 7.66368C22.6337 7.66368 22.2744 7.6793 22.5556 7.37725C22.665 7.25747 22.6858 7.17935 22.7066 6.82002C22.7796 5.17956 21.5401 3.45577 19.8944 2.90374C19.6809 2.83083 19.358 2.74751 19.1705 2.72147C18.655 2.63814 13.9836 2.65377 13.5201 2.7423Z" fill="#999999"/>
<path d="M7.63525 4.19527C6.78637 4.40879 6.07811 5.13268 5.89584 5.98676C5.81251 6.37735 5.81251 27.0732 5.89584 27.4638C5.97916 27.8491 6.21872 28.3074 6.49474 28.5991C6.76554 28.8855 7.30195 29.1876 7.70295 29.2709C8.09353 29.3542 24.7273 29.3542 25.1179 29.2709C26.0032 29.0834 26.7375 28.3439 26.925 27.4638C27.0083 27.068 27.0083 6.37735 26.925 5.98676C26.7844 5.33058 26.3261 4.72647 25.748 4.42442C25.2897 4.18486 24.9773 4.12236 24.2221 4.12236H23.6024L23.7847 4.50774C24.0919 5.17434 24.2273 5.77324 24.2586 6.57524C24.2846 7.2158 24.2742 7.31996 24.17 7.63243C24.0451 8.01781 23.7118 8.50213 23.4253 8.72086C23.316 8.79898 23.0764 8.93959 22.8785 9.03333L22.5296 9.19998H16.4104H10.2912L9.94231 9.03333C9.74441 8.93959 9.50485 8.79898 9.39549 8.72086C9.10906 8.50213 8.77576 8.01781 8.65077 7.63243C8.54661 7.31996 8.5362 7.2158 8.56224 6.57524C8.59348 5.77324 8.72889 5.17434 9.03615 4.50774L9.21842 4.12236L8.55703 4.12757C8.19248 4.12757 7.78106 4.15882 7.63525 4.19527ZM21.5036 12.3247C21.8369 12.5278 21.8786 12.71 21.8786 13.9964C21.8786 14.9806 21.8682 15.1629 21.7849 15.3192C21.4568 15.9753 20.4517 15.8243 20.3319 15.1004L20.3006 14.8921L19.0195 16.168C17.6342 17.5481 17.5561 17.6054 17.1551 17.496C16.9989 17.4544 16.702 17.1888 15.6969 16.1889L14.4314 14.9338L13.2232 16.1368C11.9109 17.4387 11.8223 17.5012 11.4265 17.3919C11.1661 17.319 10.9058 17.0534 10.8589 16.8086C10.786 16.4024 10.8381 16.3347 12.4941 14.6786C14.1658 13.0069 14.1971 12.9861 14.6241 13.0798C14.7804 13.1163 15.0408 13.3506 16.0823 14.3922L17.3478 15.6577L18.2592 14.7463C18.7591 14.2463 19.1705 13.8193 19.1705 13.7985C19.1705 13.7724 19.1133 13.7568 19.0404 13.7568C18.7331 13.7568 18.4206 13.4756 18.3581 13.1475C18.2904 12.7777 18.5352 12.3559 18.8893 12.2465C18.9727 12.2205 19.5559 12.2049 20.1861 12.2101C21.2224 12.2205 21.3474 12.2309 21.5036 12.3247ZM13.5565 19.1781C13.8586 19.3917 13.9679 19.8604 13.7909 20.1885C13.7492 20.2718 13.2805 20.7717 12.7545 21.2925C11.9577 22.0789 11.765 22.2403 11.6036 22.2716C11.213 22.3445 11.0724 22.2768 10.5152 21.7352C9.79128 21.0321 9.6715 20.7613 9.90064 20.3187C10.0204 20.0843 10.3173 19.902 10.5777 19.902C10.7808 19.902 11.0203 20.0218 11.2443 20.2301L11.4109 20.3916L12.0254 19.7875C12.3587 19.4489 12.7181 19.1417 12.817 19.0948C13.041 18.9959 13.3482 19.0323 13.5565 19.1781ZM22.6129 20.0218C23.0868 20.3395 23.0764 20.9644 22.5869 21.329C22.4463 21.4383 22.3942 21.4383 19.0404 21.4383C15.6865 21.4383 15.6344 21.4383 15.4938 21.329C15.0043 20.9644 14.9939 20.3395 15.4678 20.0218L15.6449 19.902H19.0404H22.4358L22.6129 20.0218ZM13.5722 23.6725C13.8534 23.8548 13.9627 24.3495 13.7909 24.6672C13.7492 24.7505 13.2805 25.2505 12.7545 25.7712C11.7286 26.7868 11.6609 26.8336 11.2182 26.7503C11.0568 26.7243 10.911 26.6097 10.437 26.1306C9.96835 25.6567 9.84857 25.5108 9.82253 25.3494C9.71316 24.7765 10.2392 24.261 10.7756 24.4224C10.8849 24.4537 11.0724 24.5682 11.1922 24.6724L11.4161 24.8599L12.0567 24.2349C12.4681 23.8287 12.7493 23.5944 12.8483 23.5735C12.9316 23.5527 13.0253 23.5319 13.0514 23.5267C13.1451 23.5006 13.442 23.5892 13.5722 23.6725ZM22.5244 24.4537C23.092 24.6932 23.1024 25.5629 22.5348 25.8337C22.3213 25.9431 22.2379 25.9431 19.0404 25.9431C15.874 25.9431 15.7594 25.9379 15.5511 25.8389C15.1189 25.6306 14.9835 25.0838 15.2647 24.6932C15.4886 24.3755 15.3949 24.386 19.0299 24.3807C21.7484 24.3807 22.3838 24.3964 22.5244 24.4537Z" fill="#999999"/>
</svg>
